<svg width="819" height="814" viewBox="0 0 819 814" fill="none" xmlns="http://www.w3.org/2000/svg">
<path fill-rule="evenodd" clip-rule="evenodd" d="M123.891 699.398C180.919 754.99 254.807 793.706 333.158 808.597C380.268 817.531 458.618 815.049 506.72 803.633C552.342 792.713 633.172 752.508 669.372 723.223C712.515 687.982 752.682 637.353 777.973 585.732C811.693 517.731 817.644 488.446 818.14 404.065C818.14 342.02 816.652 327.13 806.734 294.866C761.112 149.93 652.512 46.6875 505.728 9.46069C455.147 -3.94097 359.936 -2.94825 307.371 11.4461C162.075 50.6584 57.4419 152.908 14.2993 298.341C-3.55276 358.897 -5.04043 446.256 11.8199 507.804C31.6556 583.747 67.3598 644.302 123.891 699.398ZM143.232 230.839C19.2592 417.469 122.405 670.115 342.085 718.758C436.304 739.605 541.433 713.298 620.776 649.268C670.861 608.567 677.307 535.602 635.157 489.441C607.387 458.171 548.376 447.251 513.663 465.616L496.307 475.047L505.233 461.149C539.945 408.535 549.863 372.301 546.392 316.212C541.929 239.277 496.307 173.261 425.394 139.509C393.657 124.618 388.698 123.626 334.646 123.626C281.09 123.626 275.635 124.618 245.386 139.013C203.731 158.867 172.49 187.159 143.232 230.839Z" fill="#FFF5F6"/>
</svg>
