<svg width="132" height="121" viewBox="0 0 132 121" fill="none" xmlns="http://www.w3.org/2000/svg">
<path d="M55.5228 64.1319C35.9216 59.7916 26.7183 37.249 37.7799 20.5967C40.3905 16.6994 43.178 14.175 46.8947 12.4034C49.5937 11.1191 50.0805 11.0305 54.8591 11.0305C59.6819 11.0305 60.1244 11.1191 62.9562 12.4477C69.2834 15.4593 73.3541 21.3496 73.7523 28.2143C74.062 33.2188 73.1771 36.4518 70.0798 41.1464L69.2834 42.3864L70.832 41.545C73.9293 39.9063 79.1946 40.8806 81.6724 43.6708C85.4334 47.7896 84.8582 54.2999 80.3893 57.9315C73.3098 63.6447 63.9296 65.992 55.5228 64.1319Z" fill="#FDD2D7"/>
<path fill-rule="evenodd" clip-rule="evenodd" d="M36.0543 62.4045C41.1427 67.3648 47.7354 70.8192 54.7264 72.1479C58.9298 72.9451 65.9207 72.7236 70.2126 71.705C74.2833 70.7307 81.4955 67.1433 84.7255 64.5303C88.5749 61.3859 92.1589 56.8685 94.4154 52.2626C97.4242 46.1951 97.9551 43.5821 97.9994 36.0531C97.9994 30.5171 97.8667 29.1885 96.9817 26.3098C92.911 13.3777 83.2211 4.16574 70.1241 0.84414C65.611 -0.351637 57.1157 -0.263061 52.4255 1.02129C39.4613 4.52005 30.1253 13.6434 26.2759 26.6198C24.683 32.0229 24.5503 39.8176 26.0546 45.3093C27.8245 52.0854 31.0102 57.4885 36.0543 62.4045ZM37.78 20.5967C26.7184 37.249 35.9216 59.7916 55.5228 64.1319C63.9297 65.992 73.3099 63.6447 80.3893 57.9315C84.8582 54.2999 85.4334 47.7896 81.6725 43.6708C79.1947 40.8806 73.9294 39.9063 70.8321 41.545L69.2835 42.3864L70.0799 41.1464C73.1772 36.4518 74.0621 33.2188 73.7524 28.2143C73.3541 21.3496 69.2835 15.4593 62.9562 12.4477C60.1245 11.1191 59.682 11.0305 54.8591 11.0305C50.0805 11.0305 49.5938 11.1191 46.8948 12.4034C43.1781 14.175 40.3905 16.6994 37.78 20.5967Z" fill="#FAA7B4"/>
<path d="M67.4434 120.084C64.7128 119.853 62.0001 118.982 62.1607 118.378C62.8567 115.854 63.0352 115.463 63.5884 115.125C64.3023 114.681 64.57 114.681 66.5153 115.143C68.6391 115.659 70.7272 115.552 72.0479 114.894C73.7969 114.006 74.6 112.477 74.6 110.007V108.691L73.6184 109.58C71.9229 111.126 69.5671 111.695 67.0864 111.144C65.4623 110.789 64.3558 110.167 63.0887 108.922C59.1981 105.101 59.4836 97.103 63.642 93.2461C65.4088 91.6109 67.2113 90.9177 69.6564 90.9177C71.8872 90.9355 73.8147 91.7531 74.7784 93.0861C75.2068 93.6904 75.4923 93.6371 75.4923 92.9795C75.4923 91.6998 76.2776 91.3087 78.9189 91.3087H80.9535L80.8999 98.3827C80.7928 111.126 80.775 111.82 80.2753 113.473C79.4543 116.21 78.1158 117.827 75.76 118.947C73.6362 119.96 70.638 120.369 67.4434 120.084ZM72.2263 106.576C73.083 106.256 74.0467 105.172 74.3323 104.212C74.707 102.986 74.6892 99.0936 74.3323 98.045C73.9932 97.1207 73.1365 96.161 72.3334 95.8233C70.9413 95.219 69.0139 95.7344 67.9966 96.9608C66.2833 99.0225 66.3547 103.697 68.1394 105.599C69.1031 106.612 70.9413 107.056 72.2263 106.576Z" fill="#1E2F52"/>
<path d="M127.463 111.802C125.803 110.984 125.357 108.745 126.606 107.341C127.856 105.919 129.747 105.848 131.139 107.181C133.013 108.976 131.621 112.104 128.944 112.104C128.462 112.104 127.784 111.962 127.463 111.802ZM130.247 111.215C130.872 110.842 131.354 109.936 131.354 109.171C131.354 107.358 129.194 106.185 127.641 107.127C126.624 107.749 126.267 109.1 126.838 110.273C127.409 111.5 129.033 111.944 130.247 111.215Z" fill="#1E2F52"/>
<path d="M127.784 109.278V107.856L128.391 107.732C129.622 107.518 130.64 108.212 130.051 108.869C129.765 109.171 129.765 109.26 130.015 109.722C130.372 110.415 130.354 110.682 129.926 110.682C129.694 110.682 129.569 110.558 129.569 110.344C129.569 109.936 129.123 109.438 128.766 109.438C128.623 109.438 128.498 109.669 128.462 110.007C128.426 110.398 128.302 110.611 128.105 110.647C127.82 110.7 127.784 110.54 127.784 109.278ZM129.515 108.798C129.64 108.478 129.444 108.247 128.944 108.158C128.676 108.123 128.569 108.212 128.534 108.603C128.48 109.011 128.534 109.082 128.944 109.082C129.194 109.082 129.444 108.958 129.515 108.798Z" fill="#1E2F52"/>
<path d="M45.5997 111.748C41.7626 110.984 38.8178 108.158 37.9255 104.426C37.5864 103.004 37.5864 100.284 37.9255 98.7204C38.7108 94.9879 41.6198 92.0908 45.4569 91.2021C46.9917 90.8466 50.0971 90.8466 51.4891 91.2199C55.0764 92.1441 57.6999 94.7213 58.6457 98.2583C59.0384 99.7335 59.0384 102.542 58.6457 104.177C57.7534 107.909 54.8622 110.753 51.043 111.642C49.8115 111.944 46.8311 111.997 45.5997 111.748ZM49.99 107.127C50.8288 106.683 51.6141 105.652 52.0602 104.408C52.56 102.968 52.5064 99.5735 51.9532 98.1516C50.7396 95.0945 47.545 94.277 45.564 96.5164C43.5651 98.7737 43.6543 104.212 45.7424 106.399C46.0637 106.719 46.5634 107.092 46.8489 107.234C47.6699 107.589 49.1512 107.536 49.99 107.127Z" fill="#1E2F52"/>
<path d="M90.3946 111.642C86.5575 110.895 83.702 108.123 82.8989 104.372C81.6317 98.3827 84.7728 92.6063 90.0555 91.2199C91.4475 90.8467 94.3566 90.8467 95.7486 91.2199C97.9973 91.8242 99.7642 93.2817 100.853 95.4678C101.87 97.5296 102.298 100.213 101.977 102.577L101.852 103.395H95.2846C88.717 103.395 88.6991 103.395 88.6991 103.768C88.6991 105.012 90.1269 106.416 91.9829 106.985C93.0538 107.305 93.4999 107.341 95.5523 107.252C96.8373 107.198 98.3721 107.021 98.9432 106.861C99.6928 106.647 100.032 106.63 100.121 106.772C100.371 107.181 100.871 110.54 100.692 110.718C100.442 110.966 98.2472 111.517 96.641 111.731C94.8206 111.997 91.9294 111.944 90.3946 111.642ZM96.1948 98.6138C96.1948 97.4585 95.3025 95.8944 94.3744 95.379C93.1608 94.7214 91.0549 94.9524 90.0912 95.8589C89.4844 96.4454 88.8062 97.6896 88.6456 98.5605L88.5385 99.1292H92.3577H96.1948V98.6138Z" fill="#1E2F52"/>
<path d="M0 96.3742V81H5.22915C10.9045 81 13.1175 81.16 15.1699 81.7287C18.6679 82.6707 21.0058 84.9102 21.8625 88.1272C22.4336 90.2601 22.0231 93.6193 20.9344 95.6277C20.1849 96.9963 18.6857 98.4004 17.026 99.2713C14.92 100.356 13.1532 100.747 9.78011 100.853L6.9603 100.96L6.9246 106.31L6.87106 111.66L3.44445 111.713L0 111.748V96.3742ZM12.2073 95.2189C13.6707 94.668 14.7059 93.6015 15.0985 92.2685C15.6696 90.2601 15.0985 88.3228 13.635 87.3985C12.5464 86.7231 11.4577 86.5098 9.01269 86.5098H6.9603V91.0244C6.9603 95.1834 6.97814 95.5566 7.28154 95.6455C7.44216 95.6988 8.38805 95.6988 9.36963 95.6811C10.6903 95.6277 11.422 95.5211 12.2073 95.2189Z" fill="#1E2F52"/>
<path d="M24.4507 102.257C24.4507 97.1385 24.3972 92.5884 24.3436 92.1263L24.2187 91.3087H26.3068C29.1444 91.3087 29.7691 91.682 29.8226 93.406C29.8405 93.7615 29.894 94.3125 29.9654 94.5969L30.0903 95.1301L30.5722 94.1881C31.1611 93.0683 32.1963 91.9841 33.1778 91.5042C33.9453 91.1132 35.4622 90.8288 36.3724 90.9177L36.9435 90.971V93.8504V96.7297H35.2838C33.8025 96.7297 33.5526 96.783 32.7852 97.2274C31.6252 97.9028 31.0541 98.8092 30.8577 100.32C30.7864 100.978 30.715 103.786 30.6971 106.559V111.571H27.5739H24.4507V102.257Z" fill="#1E2F52"/>
<path d="M103.69 103.075C103.69 98.3826 103.637 93.8325 103.583 92.9438L103.458 91.3087H105.457C107.724 91.3087 108.313 91.5042 108.866 92.4284C109.062 92.7483 109.223 93.2104 109.223 93.4948C109.223 93.7614 109.276 93.9747 109.366 93.9747C109.437 93.9747 109.883 93.5659 110.365 93.086C111.989 91.4331 114.238 90.7044 116.897 90.971C119.699 91.2731 121.644 92.9616 122.662 95.9831C123.019 97.014 123.036 97.565 123.108 104.337L123.179 111.571H120.056H116.933L116.844 105.225C116.772 98.3826 116.701 97.9382 115.826 96.9251C115.112 96.1076 114.434 95.8765 113.167 95.9654C111.9 96.0542 111.043 96.623 110.419 97.7605C110.044 98.4892 110.026 98.667 109.972 105.048L109.919 111.571H106.796H103.69V103.075Z" fill="#1E2F52"/>
</svg>
