<svg width="147" height="33" viewBox="0 0 147 33" fill="none" xmlns="http://www.w3.org/2000/svg">
<path d="M10.9265 22.9578C3.90973 21.4041 0.615157 13.3343 4.57498 7.37311C5.5095 5.97794 6.50737 5.07425 7.83787 4.44009C8.80407 3.98032 8.9783 3.94861 10.6889 3.94861C12.4154 3.94861 12.5738 3.98032 13.5875 4.45594C15.8526 5.53403 17.3098 7.64263 17.4523 10.1C17.5632 11.8915 17.2464 13.0489 16.1377 14.7294L15.8526 15.1734L16.4069 14.8721C17.5157 14.2855 19.4006 14.6343 20.2876 15.6331C21.6339 17.1076 21.428 19.4381 19.8282 20.7382C17.2939 22.7834 13.936 23.6236 10.9265 22.9578Z" fill="#FDD2D7"/>
<path fill-rule="evenodd" clip-rule="evenodd" d="M3.95722 22.3395C5.77874 24.1152 8.13879 25.3518 10.6414 25.8274C12.1461 26.1128 14.6487 26.0335 16.1852 25.6689C17.6424 25.3201 20.2242 24.0359 21.3804 23.1005C22.7585 21.9748 24.0414 20.3577 24.8493 18.7089C25.9263 16.5369 26.1164 15.6015 26.1322 12.9063C26.1322 10.9245 26.0847 10.4489 25.7679 9.41834C24.3107 4.78892 20.8419 1.49125 16.1535 0.302184C14.5379 -0.125879 11.4967 -0.0941702 9.81776 0.365601C5.17685 1.61808 1.83475 4.88404 0.456736 9.52932C-0.113479 11.4635 -0.160997 14.2539 0.377539 16.2198C1.01111 18.6455 2.15154 20.5797 3.95722 22.3395ZM4.57499 7.37312C0.615168 13.3343 3.90974 21.4041 10.9265 22.9578C13.936 23.6236 17.2939 22.7834 19.8282 20.7382C21.428 19.4381 21.6339 17.1076 20.2876 15.6331C19.4006 14.6343 17.5157 14.2855 16.4069 14.8721L15.8526 15.1734L16.1377 14.7295C17.2464 13.0489 17.5632 11.8916 17.4523 10.1C17.3098 7.64264 15.8526 5.53403 13.5875 4.45595C12.5738 3.98033 12.4154 3.94862 10.689 3.94862C8.97831 3.94862 8.80408 3.98033 7.83788 4.4401C6.50738 5.07426 5.50951 5.97795 4.57499 7.37312Z" fill="#FAA7B4"/>
<path d="M92.2906 32.5446C90.0169 32.3522 87.7581 31.627 87.8919 31.1238C88.4714 29.0222 88.62 28.6966 89.0807 28.4154C89.6751 28.0454 89.898 28.0454 91.5179 28.4302C93.2863 28.8594 95.025 28.7706 96.1247 28.223C97.581 27.4831 98.2497 26.2103 98.2497 24.1531V23.0579L97.4324 23.7979C96.0206 25.0855 94.059 25.5591 91.9934 25.1003C90.6411 24.8043 89.7197 24.2863 88.6646 23.2503C85.425 20.0684 85.6628 13.4085 89.1253 10.197C90.5965 8.83543 92.0974 8.25824 94.1333 8.25824C95.9909 8.27304 97.5959 8.95383 98.3984 10.0638C98.755 10.567 98.9928 10.5226 98.9928 9.97501C98.9928 8.90943 99.6466 8.58383 101.846 8.58383H103.54L103.496 14.4741C103.406 25.0855 103.392 25.6627 102.975 27.0391C102.292 29.3182 101.177 30.665 99.2157 31.5974C97.4473 32.441 94.9507 32.7814 92.2906 32.5446ZM96.2733 21.2968C96.9866 21.0304 97.7891 20.1276 98.0268 19.3284C98.3389 18.3072 98.324 15.0661 98.0268 14.1929C97.7445 13.4233 97.0312 12.6242 96.3624 12.343C95.2033 11.8398 93.5984 12.269 92.7513 13.2901C91.3247 15.0069 91.3841 18.8992 92.8702 20.4828C93.6727 21.3264 95.2033 21.6964 96.2733 21.2968Z" fill="#1E2F52"/>
<path d="M142.267 25.648C140.885 24.9672 140.514 23.1024 141.554 21.9332C142.594 20.7493 144.17 20.6901 145.329 21.8C146.889 23.2948 145.73 25.8996 143.501 25.8996C143.1 25.8996 142.535 25.7812 142.267 25.648ZM144.586 25.1596C145.106 24.8488 145.507 24.094 145.507 23.4576C145.507 21.948 143.709 20.9712 142.416 21.7556C141.569 22.2736 141.272 23.3984 141.747 24.3752C142.223 25.3964 143.575 25.7664 144.586 25.1596Z" fill="#1E2F52"/>
<path d="M142.535 23.5463V22.3624L143.04 22.2588C144.065 22.0812 144.913 22.6584 144.422 23.2059C144.184 23.4575 144.184 23.5315 144.392 23.9163C144.69 24.4935 144.675 24.7155 144.318 24.7155C144.125 24.7155 144.021 24.6119 144.021 24.4343C144.021 24.0939 143.649 23.6795 143.352 23.6795C143.233 23.6795 143.129 23.8719 143.099 24.1531C143.07 24.4787 142.966 24.6563 142.802 24.6859C142.565 24.7303 142.535 24.5971 142.535 23.5463ZM143.976 23.1467C144.08 22.8804 143.917 22.688 143.501 22.614C143.278 22.5844 143.189 22.6584 143.159 22.9839C143.114 23.3243 143.159 23.3835 143.501 23.3835C143.709 23.3835 143.917 23.2799 143.976 23.1467Z" fill="#1E2F52"/>
<path d="M74.1019 25.6035C70.9069 24.9671 68.4549 22.6139 67.7118 19.506C67.4295 18.322 67.4295 16.0577 67.7118 14.7553C68.3657 11.6474 70.788 9.23501 73.983 8.49502C75.261 8.19903 77.8468 8.19903 79.0059 8.50982C81.9929 9.2794 84.1775 11.4254 84.9651 14.3705C85.292 15.5989 85.292 17.9372 84.9651 19.2988C84.222 22.4067 81.8146 24.7747 78.6344 25.5147C77.609 25.7663 75.1273 25.8107 74.1019 25.6035ZM77.7576 21.7555C78.4561 21.3856 79.11 20.5272 79.4815 19.4912C79.8976 18.2924 79.853 15.4657 79.3923 14.2817C78.3818 11.7362 75.7217 11.0554 74.0722 12.9201C72.4078 14.7997 72.4821 19.3284 74.2208 21.1488C74.4883 21.4152 74.9044 21.7259 75.1422 21.8443C75.8258 22.1403 77.0592 22.0959 77.7576 21.7555Z" fill="#1E2F52"/>
<path d="M111.402 25.5147C108.206 24.8932 105.829 22.5844 105.16 19.4617C104.105 14.4742 106.72 9.66427 111.119 8.50989C112.278 8.1991 114.701 8.1991 115.86 8.50989C117.732 9.01308 119.203 10.2267 120.11 12.047C120.957 13.7638 121.314 15.9985 121.046 17.9669L120.942 18.6477H115.473C110.005 18.6477 109.99 18.6477 109.99 18.9585C109.99 19.9945 111.179 21.1636 112.724 21.6372C113.616 21.9036 113.987 21.9332 115.696 21.8592C116.766 21.8148 118.044 21.6668 118.52 21.5336C119.144 21.356 119.426 21.3412 119.501 21.4596C119.709 21.8 120.125 24.5972 119.976 24.7452C119.768 24.9524 117.94 25.4111 116.603 25.5887C115.087 25.8107 112.68 25.7663 111.402 25.5147ZM116.231 14.6666C116.231 13.7046 115.488 12.4022 114.715 11.973C113.705 11.4254 111.951 11.6178 111.149 12.3726C110.644 12.861 110.079 13.897 109.945 14.6222L109.856 15.0958H113.036H116.231V14.6666Z" fill="#1E2F52"/>
<path d="M36.1322 12.8017V0H40.4864C45.2121 0 47.0548 0.133197 48.7638 0.606788C51.6765 1.39117 53.6232 3.25593 54.3365 5.93468C54.8121 7.71064 54.4703 10.5078 53.5638 12.1802C52.9396 13.3197 51.6913 14.4889 50.3093 15.2141C48.5557 16.1169 47.0845 16.4425 44.2759 16.5313L41.9279 16.6201L41.8981 21.0748L41.8536 25.5295L39.0003 25.5739L36.1322 25.6035V12.8017ZM46.2969 11.8398C47.5155 11.381 48.3774 10.493 48.7043 9.38301C49.1799 7.71064 48.7043 6.09748 47.4858 5.32789C46.5793 4.7655 45.6728 4.58791 43.6368 4.58791H41.9279V8.34703C41.9279 11.8102 41.9427 12.121 42.1954 12.195C42.3291 12.2394 43.1167 12.2394 43.9341 12.2246C45.0338 12.1802 45.643 12.0914 46.2969 11.8398Z" fill="#1E2F52"/>
<path d="M56.4917 17.7005C56.4917 13.4381 56.4471 9.64942 56.4025 9.26462L56.2985 8.58384H58.0372C60.4001 8.58384 60.9202 8.89463 60.9648 10.3302C60.9796 10.6262 61.0242 11.085 61.0837 11.3218L61.1877 11.7658L61.5889 10.9814C62.0793 10.049 62.9412 9.14623 63.7586 8.74663C64.3976 8.42104 65.6607 8.18425 66.4186 8.25824L66.8942 8.30264V10.7002V13.0977H65.5121C64.2787 13.0977 64.0706 13.1421 63.4316 13.5121C62.4657 14.0745 61.9902 14.8293 61.8267 16.0873C61.7672 16.6349 61.7078 18.9732 61.6929 21.282V25.4555H59.0923H56.4917V17.7005Z" fill="#1E2F52"/>
<path d="M122.473 18.3812C122.473 14.4741 122.428 10.6854 122.383 9.94538L122.279 8.58381H123.944C125.831 8.58381 126.322 8.7466 126.782 9.51619C126.946 9.78258 127.079 10.1674 127.079 10.4042C127.079 10.6262 127.124 10.8038 127.198 10.8038C127.258 10.8038 127.629 10.4634 128.031 10.0638C129.383 8.68741 131.255 8.08062 133.47 8.30261C135.803 8.55421 137.422 9.96018 138.27 12.4761C138.567 13.3345 138.582 13.7933 138.641 19.432L138.7 25.4555H136.1H133.499L133.425 20.172C133.365 14.4741 133.306 14.1041 132.578 13.2605C131.983 12.5797 131.419 12.3873 130.364 12.4613C129.309 12.5353 128.595 13.0089 128.075 13.9561C127.763 14.5629 127.748 14.7109 127.704 20.024L127.659 25.4555H125.058H122.473V18.3812Z" fill="#1E2F52"/>
</svg>
