<svg width="73" height="73" viewBox="0 0 73 73" fill="none" xmlns="http://www.w3.org/2000/svg">
<path d="M30.5228 64.1319C10.9216 59.7916 1.71832 37.249 12.7799 20.5967C15.3905 16.6994 18.178 14.175 21.8947 12.4034C24.5937 11.1191 25.0805 11.0305 29.8591 11.0305C34.6819 11.0305 35.1244 11.1191 37.9562 12.4477C44.2834 15.4593 48.3541 21.3496 48.7523 28.2143C49.062 33.2188 48.1771 36.4518 45.0798 41.1464L44.2834 42.3864L45.832 41.545C48.9293 39.9063 54.1946 40.8806 56.6724 43.6708C60.4334 47.7896 59.8582 54.2999 55.3893 57.9315C48.3098 63.6447 38.9296 65.992 30.5228 64.1319Z" fill="#FDD2D7"/>
<path fill-rule="evenodd" clip-rule="evenodd" d="M11.0543 62.4045C16.1427 67.3648 22.7354 70.8192 29.7264 72.1479C33.9298 72.9451 40.9207 72.7236 45.2126 71.705C49.2833 70.7307 56.4955 67.1433 59.7255 64.5303C63.5749 61.3859 67.1589 56.8685 69.4154 52.2626C72.4242 46.1951 72.9551 43.5821 72.9994 36.0531C72.9994 30.5171 72.8667 29.1885 71.9817 26.3098C67.911 13.3777 58.2211 4.16574 45.1241 0.84414C40.611 -0.351637 32.1157 -0.263061 27.4255 1.02129C14.4613 4.52005 5.12532 13.6434 1.27587 26.6198C-0.316998 32.0229 -0.449738 39.8176 1.05464 45.3093C2.8245 52.0854 6.01025 57.4885 11.0543 62.4045ZM12.78 20.5967C1.71838 37.249 10.9216 59.7916 30.5228 64.1319C38.9297 65.992 48.3099 63.6447 55.3893 57.9315C59.8582 54.2999 60.4334 47.7896 56.6725 43.6708C54.1947 40.8806 48.9294 39.9063 45.8321 41.545L44.2835 42.3864L45.0799 41.1464C48.1772 36.4518 49.0621 33.2188 48.7524 28.2143C48.3541 21.3496 44.2835 15.4593 37.9562 12.4477C35.1245 11.1191 34.682 11.0305 29.8591 11.0305C25.0805 11.0305 24.5938 11.1191 21.8948 12.4034C18.1781 14.175 15.3905 16.6994 12.78 20.5967Z" fill="#FAA7B4"/>
</svg>
